<svg xmlns="http://www.w3.org/2000/svg" width="760" height="328" viewBox="0 0 760 328" font-family="-apple-system,BlinkMacSystemFont,'Segoe UI',Helvetica,Arial,sans-serif" role="img" aria-label="The chat that was never split. Average context re-read on EVERY API call. Cost = context size x number of turns.">
<text x="0" y="24" font-size="17" font-weight="700" fill="#ffffff">The chat that was never split</text>
<text x="0" y="48" font-size="13" fill="#c3c2b7">Average context re-read on EVERY API call. Cost = context size x number of turns.</text>
<line x1="232" y1="66" x2="232" y2="292" stroke="#33332f" stroke-width="1"/>
<text x="218" y="99" font-size="13" text-anchor="end" fill="#ffffff">StreamBERT  (18 chats)</text>
<path d="M233 78 h212 a4,4 0 0 1 4,4 v26 a4,4 0 0 1 -4,4 h-212 z" fill="#3987e5"/>
<text x="460" y="98" font-size="13" font-weight="700" fill="#ffffff">172k</text>
<text x="218" y="143" font-size="13" text-anchor="end" fill="#ffffff">EGX bot  (15 chats)</text>
<path d="M233 122 h221 a4,4 0 0 1 4,4 v26 a4,4 0 0 1 -4,4 h-221 z" fill="#3987e5"/>
<text x="469" y="142" font-size="13" font-weight="700" fill="#ffffff">179k</text>
<text x="218" y="187" font-size="13" text-anchor="end" fill="#ffffff">Context Guard  (12 chats)</text>
<path d="M233 166 h210 a4,4 0 0 1 4,4 v26 a4,4 0 0 1 -4,4 h-210 z" fill="#3987e5"/>
<text x="458" y="186" font-size="13" font-weight="700" fill="#ffffff">170k</text>
<text x="218" y="231" font-size="13" text-anchor="end" fill="#ffffff">Credo Calc  (5 chats)</text>
<path d="M233 210 h231 a4,4 0 0 1 4,4 v26 a4,4 0 0 1 -4,4 h-231 z" fill="#3987e5"/>
<text x="479" y="230" font-size="13" font-weight="700" fill="#ffffff">187k</text>
<text x="218" y="275" font-size="13" text-anchor="end" fill="#ffffff">Spotliar  (NEVER split)</text>
<path d="M233 254 h319 a4,4 0 0 1 4,4 v26 a4,4 0 0 1 -4,4 h-319 z" fill="#d95926"/>
<text x="567" y="274" font-size="13" font-weight="700" fill="#ffffff">257k</text>
<g transform="translate(232,304)"><g><rect x="0" y="0" width="10" height="10" rx="2" fill="#3987e5"/><text x="16" y="9" font-size="12" fill="#c3c2b7">split into chats</text><rect x="142" y="0" width="10" height="10" rx="2" fill="#d95926"/><text x="158" y="9" font-size="12" fill="#c3c2b7">one long chat</text></g></g></svg>